#!OML:ASF X:\für Bonn\!DataBase\2005_08_10_Bjorn_Final\c3d\bjorn.ASF
:FULLY-SPECIFIED
:DEGREES
140
root -1.43939 18.735 14.7428 -181.564 26.8927 176.415
lowerback -9.7471 4.85595 0.802039
upperback 4.93277 7.00074 -3.65653
thorax 11.3948 3.66177 -3.01103
lowerneck -6.33523 2.66486 5.08602
upperneck 3.16221 3.42305 -5.54862
head 2.33964 1.62861 -2.56445
rclavicle 7.05686e-015 8.74653e-015
rhumerus 56.1673 22.5094 -75.8806
rradius 68.2718
rwrist 34.6247
rhand -50.4321 8.26137
rfingers 7.12502
rthumb -23.0037 -20.3859
lclavicle 7.05686e-015 8.74653e-015
lhumerus 38.9893 -22.5777 84.0795
lradius 73.987
lwrist 49.5872
lhand -49.2843 -7.08137
lfingers 7.12502
lthumb -21.902 21.6989
rfemur 537.882 -166.775 -527.679
rtibia 30.9575
rfoot -26.1862 17.7035
rtoes -12.6074
lfemur 338.997 -0.422353 349.332
ltibia 30.4156
lfoot -4.93398 1.57665
ltoes -19.0098
141
root -1.4352 18.7371 14.7407 -181.46 27.0741 176.429
lowerback -9.76442 4.89222 0.895065
upperback 4.93503 7.0413 -3.68888
thorax 11.4281 3.6901 -3.08747
lowerneck -6.42752 2.69599 5.13456
upperneck 3.04223 3.45391 -5.56767
head 2.32047 1.64334 -2.57748
rclavicle 6.6891e-014 -7.15625e-015
rhumerus 56.3318 22.5259 -75.9017
rradius 67.6255
rwrist 34.5529
rhand -50.1802 8.03159
rfingers 7.12502
rthumb -22.762 -20.6456
lclavicle 6.6891e-014 -7.15625e-015
lhumerus 39.0632 -22.4002 84.1965
lradius 73.4199
lwrist 49.5954
lhand -49.256 -7.09659
lfingers 7.12502
lthumb -21.8749 21.6869
rfemur 537.774 -166.872 -527.635
rtibia 30.925
rfoot -26.1821 17.8584
rtoes -12.1984
lfemur 338.837 -0.604899 349.378
ltibia 30.6483
lfoot -5.05586 2.05596
ltoes -19.0383
142
root -1.43069 18.7385 14.7386 -181.358 27.2673 176.445
lowerback -9.77148 4.92414 0.971739
upperback 4.93631 7.07439 -3.69942
thorax 11.4482 3.71204 -3.13376
lowerneck -6.49203 2.72244 5.15571
upperneck 2.91417 3.48425 -5.61865
head 2.29367 1.6574 -2.59636
rclavicle 8.63719e-014 -7.95139e-015
rhumerus 56.4292 22.5798 -75.89
rradius 67.0946
rwrist 34.5221
rhand -49.9549 7.8231
rfingers 7.12502
rthumb -22.5459 -20.8805
lclavicle 8.63719e-014 -7.95139e-015
lhumerus 39.0368 -22.2311 84.3593
lradius 72.9918
lwrist 49.6372
lhand -49.3016 -7.10262
lfingers 7.12502
lthumb -21.9186 21.6758
rfemur 537.666 -167.042 -527.571
rtibia 30.897
rfoot -26.1977 17.9563
rtoes -11.711
lfemur 338.655 -0.765608 349.424
ltibia 30.9134
lfoot -5.16971 2.51667
ltoes -18.998
143
root -1.42695 18.7399 14.7345 -181.248 27.4497 176.451
lowerback -9.80531 4.96322 1.06295
upperback 4.95233 7.12084 -3.73351
thorax 11.508 3.74357 -3.2079
lowerneck -6.59078 2.74006 5.22504
upperneck 2.78719 3.49677 -5.66699
head 2.2738 1.66271 -2.62399
rclavicle 1.08338e-014 -1.51076e-014
rhumerus 56.457 22.6048 -75.9385
rradius 66.6753
rwrist 34.501
rhand -49.7756 7.72319
rfingers 7.12502
rthumb -22.3738 -21.0012
lclavicle 1.08338e-014 -1.51076e-014
lhumerus 38.9665 -22.1247 84.51
lradius 72.7004
lwrist 49.7164
lhand -49.3301 -7.15782
lfingers 7.12502
lthumb -21.946 21.6173
rfemur 537.548 -167.162 -527.525
rtibia 30.8741
rfoot -26.244 18.0187
rtoes -11.4755
lfemur 338.429 -0.974525 349.463
ltibia 31.2211
lfoot -5.2965 3.05648
ltoes -18.769
144
root -1.4231 18.7401 14.7305 -181.145 27.6342 176.503
lowerback -9.7939 4.99891 1.18263
upperback 4.9714 7.15354 -3.73888
thorax 11.5425 3.76898 -3.27327
lowerneck -6.68286 2.76541 5.24298
upperneck 2.66493 3.52393 -5.69757
head 2.25317 1.67537 -2.63538
rclavicle 1.88845e-015 4.77083e-015
rhumerus 56.3831 22.6808 -76.0226
rradius 66.3917
rwrist 34.5096
rhand -49.7083 7.84076
rfingers 7.12502
rthumb -22.3091 -20.8914
lclavicle 1.88845e-015 4.77083e-015
lhumerus 38.7857 -22.0308 84.7209
lradius 72.567
lwrist 49.7894
lhand -49.375 -7.11707
lfingers 7.12502
lthumb -21.9891 21.653
rfemur 537.449 -167.311 -527.439
rtibia 30.8695
rfoot -26.285 18.082
rtoes -11.2126
lfemur 338.215 -1.06397 349.531
ltibia 31.5759
lfoot -5.36625 3.51233
ltoes -18.8173
145
root -1.42033 18.7401 14.7257 -181.068 27.8073 176.552
lowerback -9.75362 5.02795 1.29106
upperback 5.00185 7.17738 -3.728
thorax 11.568 3.78884 -3.31862
lowerneck -6.74883 2.7839 5.25059
upperneck 2.52673 3.54442 -5.73991
head 2.2221 1.68491 -2.64921
rclavicle -2.38542e-015 -2.06736e-014
rhumerus 56.2081 22.7906 -76.1706
rradius 66.2438
rwrist 34.5708
rhand -49.7531 8.13308
rfingers 7.12502
rthumb -22.3521 -20.5939
lclavicle -2.38542e-015 -2.06736e-014
lhumerus 38.5223 -21.9535 84.9527
lradius 72.575
lwrist 49.9873
lhand -49.426 -7.18765
lfingers 7.12502
lthumb -22.0381 21.5767
rfemur 537.377 -167.516 -527.351
rtibia 30.8762
rfoot -26.3886 18.0467
rtoes -11.054
lfemur 337.992 -1.0811 349.575
ltibia 31.9872
lfoot -5.41916 3.90924
ltoes -18.9403
146
root -1.41746 18.7371 14.7199 -181.033 27.9844 176.586
lowerback -9.67338 5.05719 1.40046
upperback 5.04601 7.20658 -3.7369
thorax 11.5888 3.81399 -3.38749
lowerneck -6.7965 2.81034 5.31826
upperneck 2.36852 3.57154 -5.80684
head 2.18394 1.69817 -2.68235
rclavicle -9.83984e-015 2.70347e-014
rhumerus 55.9659 22.9074 -76.348
rradius 66.2414
rwrist 34.5583
rhand -49.9121 8.61077
rfingers 7.12502
rthumb -22.5048 -20.0978
lclavicle -9.83984e-015 2.70347e-014
lhumerus 38.2094 -21.9359 85.1579
lradius 72.6836
lwrist 50.1015
lhand -49.5231 -7.18449
lfingers 7.12502
lthumb -22.1313 21.5688
rfemur 537.34 -167.699 -527.295
rtibia 30.9027
rfoot -26.4704 18.0461
rtoes -10.7317
lfemur 337.791 -1.04169 349.589
ltibia 32.4557
lfoot -5.48257 4.26209
ltoes -19.2278
147
root -1.41489 18.7344 14.7135 -181.019 28.1585 176.606
lowerback -9.5728 5.07263 1.47337
upperback 5.09989 7.21927 -3.71978
thorax 11.598 3.82711 -3.41284
lowerneck -6.84541 2.8378 5.34516
upperneck 2.2258 3.60438 -5.87306
head 2.15037 1.714 -2.70747
rclavicle -2.98177e-016 2.22639e-014
rhumerus 55.6719 23.0857 -76.5139
rradius 66.3288
rwrist 34.6
rhand -50.1397 9.00564
rfingers 7.12502
rthumb -22.7232 -19.6763
lclavicle -2.98177e-016 2.22639e-014
lhumerus 37.8184 -21.9164 85.4102
lradius 72.9283
lwrist 50.18
lhand -49.6518 -7.13603
lfingers 7.12502
lthumb -22.2549 21.6026
rfemur 537.313 -167.895 -527.258
rtibia 30.9367
rfoot -26.5758 18.0318
rtoes -10.657
lfemur 337.565 -0.91877 349.573
ltibia 32.9802
lfoot -5.52811 4.56012
ltoes -19.8431
148
root -1.4126 18.732 14.7062 -180.974 28.3129 176.644
lowerback -9.49122 5.08591 1.56581
upperback 5.15827 7.22649 -3.70111
thorax 11.6257 3.839 -3.44675
lowerneck -6.83127 2.85972 5.37768
upperneck 2.00644 3.63087 -5.95622
head 2.08019 1.72785 -2.73974
rclavicle 1.20265e-014 2.54444e-014
rhumerus 55.3524 23.2482 -76.6965
rradius 66.4976
rwrist 34.708
rhand -50.3217 9.25176
rfingers 7.12502
rthumb -22.8978 -19.4087
lclavicle 1.20265e-014 2.54444e-014
lhumerus 37.3944 -21.9392 85.6556
lradius 73.2607
lwrist 50.2775
lhand -49.7915 -7.18097
lfingers 7.12502
lthumb -22.389 21.5416
rfemur 537.266 -168.077 -527.196
rtibia 30.9746
rfoot -26.6912 17.9714
rtoes -10.6569
lfemur 337.278 -0.753824 349.558
ltibia 33.5618
lfoot -5.55965 4.80943
ltoes -20.6068
149
root -1.41058 18.7281 14.6976 -180.966 28.459 176.658
lowerback -9.36538 5.09934 1.63747
upperback 5.22663 7.23916 -3.68564
thorax 11.6363 3.85321 -3.47472
lowerneck -6.86655 2.88686 5.43194
upperneck 1.83462 3.66202 -6.04567
head 2.03606 1.74329 -2.77804
rclavicle 3.50855e-014 2.06736e-014
rhumerus 54.9862 23.4163 -76.8424
rradius 66.7642
rwrist 34.7931
rhand -50.5327 9.40163
rfingers 7.12502
rthumb -23.1003 -19.2336
lclavicle 3.50855e-014 2.06736e-014
lhumerus 36.9417 -22.0241 85.8936
lradius 73.6323
lwrist 50.2534
lhand -49.8669 -7.18888
lfingers 7.12502
lthumb -22.4614 21.5249
rfemur 537.255 -168.241 -527.176
rtibia 31.004
rfoot -26.7635 17.9474
rtoes -10.7249
lfemur 336.984 -0.578956 349.514
ltibia 34.2002
lfoot -5.60197 5.05407
ltoes -21.0802
150
root -1.40829 18.7247 14.6881 -180.995 28.5741 176.635
lowerback -9.21288 5.08027 1.63629
upperback 5.30031 7.21532 -3.64671
thorax 11.6197 3.84314 -3.44672
lowerneck -6.79774 2.91945 5.43433
upperneck 1.59531 3.70778 -6.13714
head 1.95023 1.76769 -2.80708
rclavicle -3.00165e-014 1.35174e-014
rhumerus 54.6073 23.6362 -76.9717
rradius 67.093
rwrist 35.0212
rhand -50.6892 9.35358
rfingers 7.12502
rthumb -23.2505 -19.2628
lclavicle -3.00165e-014 1.35174e-014
lhumerus 36.4245 -22.0805 86.1787
lradius 74.0078
lwrist 50.1897
lhand -49.8746 -7.48201
lfingers 7.12502
lthumb -22.4687 21.2309
rfemur 537.281 -168.423 -527.182
rtibia 31.0247
rfoot -26.9058 17.8302
rtoes -11.1099
lfemur 336.66 -0.378554 349.42
ltibia 34.9004
lfoot -5.65296 5.25341
ltoes -21.5139
151
root -1.40597 18.7208 14.6771 -181.059 28.6788 176.616
lowerback -9.006 5.07484 1.67057
upperback 5.38645 7.2119 -3.63628
thorax 11.5957 3.84908 -3.46884
lowerneck -6.75743 2.93898 5.5419
upperneck 1.36523 3.7273 -6.26339
head 1.87532 1.77871 -2.86898
rclavicle 1.27719e-013 -1.59028e-014
rhumerus 54.2202 23.8052 -77.1281
rradius 67.4379
rwrist 35.2439
rhand -50.8609 9.18889
rfingers 7.12502
rthumb -23.4151 -19.4066
lclavicle 1.27719e-013 -1.59028e-014
lhumerus 35.8753 -22.2384 86.4124
lradius 74.4737
lwrist 50.131
lhand -49.6666 -7.67201
lfingers 7.12502
lthumb -22.2691 21.0649
rfemur 537.361 -168.585 -527.203
rtibia 31.0471
rfoot -27.0176 17.762
rtoes -11.3607
lfemur 336.331 -0.106309 349.319
ltibia 35.6533
lfoot -5.70468 5.35431
ltoes -21.6515
152
root -1.40444 18.7146 14.6648 -181.139 28.7763 176.609
lowerback -8.75513 5.06042 1.71056
upperback 5.47705 7.19362 -3.60834
thorax 11.5468 3.84766 -3.48176
lowerneck -6.73406 2.9632 5.60462
upperneck 1.14399 3.7567 -6.38489
head 1.80577 1.79455 -2.92047
rclavicle -8.54774e-015 -1.19271e-014
rhumerus 53.7917 24.0069 -77.2491
rradius 67.877
rwrist 35.3908
rhand -51.0186 9.0953
rfingers 7.12502
rthumb -23.5665 -19.4808
lclavicle -8.54774e-015 -1.19271e-014
lhumerus 35.2952 -22.3776 86.7047
lradius 74.9699
lwrist 50.0441
lhand -49.4055 -7.69185
lfingers 7.12502
lthumb -22.0184 21.0748
rfemur 537.46 -168.667 -527.244
rtibia 31.0753
rfoot -27.089 17.7927
rtoes -11.5479
lfemur 335.979 0.193686 349.223
ltibia 36.4588
lfoot -5.72278 5.39225
ltoes -22.0666
153
root -1.40315 18.706 14.6522 -181.256 28.8796 176.585
lowerback -8.43172 5.04168 1.72143
upperback 5.55157 7.17199 -3.57623
thorax 11.4307 3.8422 -3.48149
lowerneck -6.60143 2.98505 5.67551
upperneck 0.872431 3.78467 -6.50259
head 1.70011 1.8117 -2.97313
rclavicle -3.67752e-015 2.50469e-014
rhumerus 53.316 24.2403 -77.3663
rradius 68.3653
rwrist 35.4216
rhand -51.1582 9.1501
rfingers 7.12502
rthumb -23.7004 -19.4087
lclavicle -3.67752e-015 2.50469e-014
lhumerus 34.6073 -22.5429 87.0245
lradius 75.544
lwrist 49.9012
lhand -49.182 -7.71531
lfingers 7.12502
lthumb -21.8038 21.0765
rfemur 537.574 -168.763 -527.299
rtibia 31.1387
rfoot -27.1886 17.7496
rtoes -11.9516
lfemur 335.631 0.525943 349.109
ltibia 37.2867
lfoot -5.67824 5.33037
ltoes -22.8713
154
root -1.40265 18.694 14.6374 -181.387 29.0098 176.583
lowerback -8.07705 5.02374 1.75417
upperback 5.63854 7.1484 -3.53113
thorax 11.3108 3.83737 -3.48178
lowerneck -6.55242 3.01995 5.7214
upperneck 0.670963 3.83058 -6.61412
head 1.6331 1.83639 -3.01799
rclavicle 6.24184e-014 -1.23246e-014
rhumerus 52.8357 24.4911 -77.4585
rradius 68.9179
rwrist 35.4527
rhand -51.2433 9.26775
rfingers 7.12502
rthumb -23.782 -19.2804
lclavicle 6.24184e-014 -1.23246e-014
lhumerus 33.9762 -22.7516 87.2237
lradius 76.2166
lwrist 49.6867
lhand -49.128 -7.37317
lfingers 7.12502
lthumb -21.7519 21.4246
rfemur 537.707 -168.866 -527.355
rtibia 31.2279
rfoot -27.2835 17.7583
rtoes -12.2996
lfemur 335.306 0.81802 349.027
ltibia 38.1111
lfoot -5.57252 5.23631
ltoes -23.8366
